<?xml version="1.0" standalone="no"?>
<!DOCTYPE svg PUBLIC "-//W3C//DTD SVG 20010904//EN"
 "http://www.w3.org/TR/2001/REC-SVG-20010904/DTD/svg10.dtd">
<svg version="1.0" xmlns="http://www.w3.org/2000/svg"
 width="270.000000pt" height="270.000000pt" viewBox="0 0 270.000000 270.000000"
 preserveAspectRatio="xMidYMid meet">
<metadata>
Created by potrace 1.14, written by Peter Selinger 2001-2017
</metadata>
<g transform="translate(0.000000,270.000000) scale(0.100000,-0.100000)"
fill="#000000" stroke="none">
<path d="M1091 2008 c-119 -18 -256 -114 -314 -222 -40 -73 -55 -135 -55 -222
2 -208 146 -383 353 -430 83 -19 215 1 293 45 63 35 234 162 280 208 25 24
102 74 146 93 24 11 75 23 114 26 l72 7 0 124 0 124 -46 -6 c-90 -11 -208 -78
-269 -155 -11 -13 -29 -35 -41 -49 l-20 -24 1 38 c4 98 -43 226 -112 301 -103
111 -251 164 -402 142z m194 -47 c115 -43 196 -114 246 -217 32 -65 34 -75 34
-174 0 -98 -2 -109 -33 -171 -101 -204 -334 -292 -535 -201 -215 98 -302 346
-196 562 24 49 131 160 154 160 8 0 15 4 15 8 0 5 28 17 63 27 34 9 67 19 72
20 22 7 152 -4 180 -14z m662 -333 c-1 -42 -4 -78 -7 -81 -3 -3 -33 -7 -67
-10 l-61 -6 -12 66 c-7 41 -8 69 -2 75 5 5 38 20 73 33 46 16 66 20 71 11 3
-6 5 -46 5 -88z m-173 -69 l6 -45 -49 -27 -49 -26 -11 31 c-16 46 -15 49 36
102 52 55 55 53 67 -35z m-126 -91 c9 -21 4 -28 -41 -70 -28 -26 -53 -46 -54
-44 -5 5 70 136 77 136 4 0 12 -10 18 -22z"/>
<path d="M1104 1940 c-62 -9 -164 -63 -212 -114 -67 -71 -96 -143 -99 -251 -2
-84 0 -94 32 -161 114 -236 413 -291 597 -111 82 81 120 179 112 294 -14 217
-210 373 -430 343z m86 -65 c64 -33 79 -103 35 -161 -52 -68 -154 -52 -185 30
-16 42 3 96 42 124 38 26 68 28 108 7z m203 -119 c49 -21 70 -50 71 -100 0
-34 -5 -51 -23 -70 -50 -53 -110 -54 -158 -1 -67 71 -32 154 75 184 1 1 17 -5
35 -13z m-375 -53 c30 -18 51 -68 46 -108 -5 -41 -64 -95 -103 -95 -47 0 -79
17 -101 52 -26 43 -25 88 2 123 41 52 101 63 156 28z m182 -113 c8 -14 8 -26
0 -40 -19 -35 -80 -20 -80 20 0 40 61 55 80 20z m162 -92 c25 -12 48 -61 48
-99 0 -46 -56 -99 -104 -99 -43 0 -82 23 -100 59 -12 23 -13 36 -7 87 2 19 51
63 74 67 26 4 64 -2 89 -15z m-266 -19 c30 -14 46 -29 53 -51 37 -107 -83
-194 -168 -122 -74 62 -35 174 68 193 3 1 24 -8 47 -20z"/>
<path d="M1115 1757 c-45 -15 -57 -26 -42 -41 39 -40 101 -40 135 -1 29 34 28
45 -5 46 -16 0 -35 2 -43 3 -8 2 -28 -1 -45 -7z"/>
<path d="M1272 1690 c-11 -31 -9 -46 11 -87 9 -21 30 -33 65 -39 30 -5 -6 103
-46 139 -19 18 -20 17 -30 -13z"/>
<path d="M995 1666 c-10 -15 -20 -52 -23 -81 -6 -68 11 -80 50 -36 33 37 37
84 9 120 l-18 24 -18 -27z"/>
<path d="M1249 1487 c-23 -17 -39 -52 -39 -81 0 -31 -1 -30 38 -11 37 19 95
82 87 96 -9 13 -67 11 -86 -4z"/>
<path d="M1011 1471 c-11 -7 -7 -15 20 -40 35 -32 92 -57 108 -47 16 10 -11
63 -40 80 -30 18 -66 21 -88 7z"/>
</g>
</svg>
